<svg width="46" height="46" viewBox="0 0 46 46" fill="none" xmlns="http://www.w3.org/2000/svg">
<path d="M39.0593 7.18921C36.9856 5.09452 34.5156 3.4337 31.7933 2.30361C29.071 1.17353 26.1509 0.5968 23.2034 0.607068C10.8534 0.607068 0.787886 10.6725 0.787886 23.0225C0.787886 26.9809 1.82836 30.8261 3.7736 34.219L0.606934 45.8452L12.4819 42.7237C15.7617 44.5106 19.4486 45.4606 23.2034 45.4606C35.5534 45.4606 45.6188 35.3952 45.6188 23.0452C45.6188 17.0511 43.2891 11.419 39.0593 7.18921ZM23.2034 41.6606C19.8557 41.6606 16.576 40.7559 13.7034 39.0594L13.0248 38.6523L5.96765 40.5071L7.84503 33.6309L7.39265 32.9297C5.53279 29.9597 4.54523 26.5268 4.54265 23.0225C4.54265 12.7535 12.9117 4.38445 23.1807 4.38445C28.1569 4.38445 32.8391 6.32969 36.345 9.85826C38.081 11.5863 39.4567 13.6417 40.3925 15.9053C41.3282 18.1689 41.8053 20.5958 41.7962 23.0452C41.8415 33.3142 33.4724 41.6606 23.2034 41.6606ZM33.4272 27.7273C32.8617 27.4559 30.1022 26.0987 29.6046 25.8952C29.0843 25.7142 28.7224 25.6237 28.3379 26.1666C27.9534 26.7321 26.8903 27.9987 26.5736 28.3606C26.2569 28.7452 25.9176 28.7904 25.3522 28.4964C24.7867 28.2249 22.9772 27.6142 20.851 25.7142C19.1772 24.2214 18.0688 22.3892 17.7296 21.8237C17.4129 21.2583 17.6843 20.9642 17.9784 20.6702C18.2272 20.4214 18.5438 20.0142 18.8153 19.6975C19.0867 19.3809 19.1998 19.1321 19.3807 18.7702C19.5617 18.3856 19.4712 18.069 19.3355 17.7975C19.1998 17.5261 18.0688 14.7666 17.6165 13.6356C17.1641 12.5499 16.6891 12.6856 16.3498 12.663H15.2641C14.8796 12.663 14.2915 12.7987 13.7712 13.3642C13.2736 13.9297 11.826 15.2868 11.826 18.0464C11.826 20.8059 13.8391 23.4749 14.1105 23.8368C14.3819 24.2214 18.0688 29.8761 23.6784 32.2964C25.0129 32.8844 26.0534 33.2237 26.8676 33.4725C28.2022 33.9023 29.4236 33.8344 30.3962 33.6987C31.4819 33.5404 33.7212 32.3416 34.1736 31.0297C34.6486 29.7178 34.6486 28.6094 34.4903 28.3606C34.3319 28.1118 33.9926 27.9987 33.4272 27.7273Z" fill="white"/>
</svg>
