<svg width="112" height="112" viewBox="0 0 112 112" fill="none" xmlns="http://www.w3.org/2000/svg">
<circle cx="56" cy="56" r="56" fill="#25D366"/>
<path d="M79.6667 32.7002C76.6107 29.6133 72.9706 27.1658 68.9588 25.5004C64.947 23.835 60.6437 22.9851 56.3 23.0002C38.1 23.0002 23.2667 37.8335 23.2667 56.0335C23.2667 61.8669 24.8 67.5335 27.6667 72.5335L23 89.6669L40.5 85.0669C45.3333 87.7002 50.7667 89.1002 56.3 89.1002C74.5 89.1002 89.3333 74.2669 89.3333 56.0669C89.3333 47.2335 85.9 38.9335 79.6667 32.7002ZM56.3 83.5002C51.3667 83.5002 46.5333 82.1669 42.3 79.6669L41.3 79.0669L30.9 81.8002L33.6667 71.6669L33 70.6335C30.2592 66.2568 28.8038 61.1977 28.8 56.0335C28.8 40.9002 41.1333 28.5669 56.2667 28.5669C63.6 28.5669 70.5 31.4335 75.6667 36.6335C78.2249 39.1801 80.2523 42.2091 81.6313 45.5449C83.0103 48.8808 83.7134 52.4572 83.7 56.0669C83.7667 71.2002 71.4333 83.5002 56.3 83.5002ZM71.3667 62.9669C70.5333 62.5669 66.4667 60.5669 65.7333 60.2669C64.9667 60.0002 64.4333 59.8669 63.8667 60.6669C63.3 61.5002 61.7333 63.3669 61.2667 63.9002C60.8 64.4669 60.3 64.5335 59.4667 64.1002C58.6333 63.7002 55.9667 62.8002 52.8333 60.0002C50.3667 57.8002 48.7333 55.1002 48.2333 54.2669C47.7667 53.4335 48.1667 53.0002 48.6 52.5669C48.9667 52.2002 49.4333 51.6002 49.8333 51.1335C50.2333 50.6669 50.4 50.3002 50.6667 49.7669C50.9333 49.2002 50.8 48.7335 50.6 48.3335C50.4 47.9335 48.7333 43.8669 48.0667 42.2002C47.4 40.6002 46.7 40.8002 46.2 40.7669H44.6C44.0333 40.7669 43.1667 40.9669 42.4 41.8002C41.6667 42.6335 39.5333 44.6335 39.5333 48.7002C39.5333 52.7669 42.5 56.7002 42.9 57.2335C43.3 57.8002 48.7333 66.1335 57 69.7002C58.9667 70.5669 60.5 71.0669 61.7 71.4335C63.6667 72.0669 65.4667 71.9669 66.9 71.7669C68.5 71.5335 71.8 69.7669 72.4667 67.8335C73.1667 65.9002 73.1667 64.2669 72.9333 63.9002C72.7 63.5335 72.2 63.3669 71.3667 62.9669Z" fill="white"/>
</svg>
