<svg width="60" height="60" viewBox="0 0 60 60" fill="none" xmlns="http://www.w3.org/2000/svg">
<path d="M23.1818 39.7745V20.2254C23.1822 19.9808 23.2484 19.7408 23.3734 19.5306C23.4985 19.3204 23.6778 19.1476 23.8925 19.0305C24.1072 18.9134 24.3495 18.8562 24.5939 18.8649C24.8384 18.8736 25.076 18.9478 25.2818 19.0799L40.4891 28.8517C40.6817 28.9751 40.8401 29.1449 40.9498 29.3456C41.0596 29.5462 41.1171 29.7712 41.1171 29.9999C41.1171 30.2286 41.0596 30.4536 40.9498 30.6543C40.8401 30.8549 40.6817 31.0247 40.4891 31.1481L25.2818 40.9227C25.076 41.0547 24.8384 41.129 24.5939 41.1377C24.3495 41.1464 24.1072 41.0892 23.8925 40.9721C23.6778 40.8549 23.4985 40.6822 23.3734 40.472C23.2484 40.2618 23.1822 40.0218 23.1818 39.7772V39.7745Z" fill="white"/>
<path d="M0 30C0 13.4318 13.4318 0 30 0C46.5682 0 60 13.4318 60 30C60 46.5682 46.5682 60 30 60C13.4318 60 0 46.5682 0 30ZM30 4.09091C23.1285 4.09091 16.5384 6.82061 11.6795 11.6795C6.82061 16.5384 4.09091 23.1285 4.09091 30C4.09091 36.8715 6.82061 43.4616 11.6795 48.3205C16.5384 53.1794 23.1285 55.9091 30 55.9091C36.8715 55.9091 43.4616 53.1794 48.3205 48.3205C53.1794 43.4616 55.9091 36.8715 55.9091 30C55.9091 23.1285 53.1794 16.5384 48.3205 11.6795C43.4616 6.82061 36.8715 4.09091 30 4.09091Z" fill="white"/>
</svg>
