<svg width="24" height="16" viewBox="0 0 24 16" fill="none" xmlns="http://www.w3.org/2000/svg">
<path d="M1 1V14.1081M1 9.34152H22.2727M22.2727 14.1081V4.57494C22.2727 3.94285 22.0237 3.33665 21.5804 2.8897C21.1372 2.44274 20.536 2.19165 19.9091 2.19165H10.4545V9.34152M4.54545 4.57494C4.54545 4.89098 4.66997 5.19408 4.8916 5.41756C5.11324 5.64104 5.41384 5.76658 5.72727 5.76658C6.04071 5.76658 6.34131 5.64104 6.56294 5.41756C6.78458 5.19408 6.90909 4.89098 6.90909 4.57494C6.90909 4.25889 6.78458 3.95579 6.56294 3.73232C6.34131 3.50884 6.04071 3.38329 5.72727 3.38329C5.41384 3.38329 5.11324 3.50884 4.8916 3.73232C4.66997 3.95579 4.54545 4.25889 4.54545 4.57494Z" stroke="#1F518F" stroke-width="2" stroke-linecap="round" stroke-linejoin="round"/>
</svg>
