<svg width="17" height="22" viewBox="0 0 17 22" fill="none" xmlns="http://www.w3.org/2000/svg">
<path d="M8.4 10.5873C8.9775 10.5873 9.47205 10.3798 9.88365 9.96478C10.2952 9.54976 10.5007 9.05145 10.5 8.46985C10.5 7.88755 10.2942 7.38889 9.8826 6.97387C9.471 6.55884 8.9768 6.35169 8.4 6.35239C7.8225 6.35239 7.32795 6.5599 6.91635 6.97493C6.50475 7.38995 6.2993 7.88826 6.3 8.46985C6.3 9.05216 6.5058 9.55082 6.9174 9.96584C7.329 10.3809 7.8232 10.588 8.4 10.5873ZM8.4 18.369C10.535 16.3927 12.1187 14.5971 13.1512 12.9822C14.1837 11.3673 14.7 9.93373 14.7 8.6816C14.7 6.75824 14.0917 5.18355 12.8751 3.95754C11.6585 2.73153 10.1668 2.11817 8.4 2.11746C6.6325 2.11746 5.14045 2.73082 3.92385 3.95754C2.70725 5.18426 2.0993 6.75894 2.1 8.6816C2.1 9.93443 2.61625 11.3683 3.64875 12.9832C4.68125 14.5981 6.265 16.3934 8.4 18.369ZM8.4 21.1746C5.5825 18.7572 3.4783 16.512 2.0874 14.439C0.6965 12.366 0.0007 10.4469 0 8.6816C0 6.03477 0.84455 3.92613 2.53365 2.35568C4.22275 0.785226 6.1782 0 8.4 0C10.6225 0 12.5783 0.785226 14.2674 2.35568C15.9565 3.92613 16.8007 6.03477 16.8 8.6816C16.8 10.4462 16.1042 12.3653 14.7126 14.439C13.321 16.5127 11.2168 18.7579 8.4 21.1746Z" fill="#1F518F"/>
</svg>
