<svg width="24" height="18" viewBox="0 0 24 18" fill="none" xmlns="http://www.w3.org/2000/svg">
<path d="M1.52589 0H22.449C22.8536 0 23.2416 0.162074 23.5278 0.450566C23.8139 0.739059 23.9746 1.13034 23.9746 1.53833V15.603C23.9746 16.011 23.8139 16.4023 23.5278 16.6908C23.2416 16.9793 22.8536 17.1414 22.449 17.1414H1.52589C1.12127 17.1414 0.733215 16.9793 0.447102 16.6908C0.16099 16.4023 0.00025177 16.011 0.00025177 15.603V1.53833C0.00025177 1.13034 0.16099 0.739059 0.447102 0.450566C0.733215 0.162074 1.12127 0 1.52589 0ZM22.449 1.31857H1.52589C1.46809 1.31857 1.41265 1.34172 1.37178 1.38293C1.33091 1.42415 1.30794 1.48004 1.30794 1.53833V4.39522H22.6669V1.53833C22.6669 1.48004 22.644 1.42415 22.6031 1.38293C22.5622 1.34172 22.5068 1.31857 22.449 1.31857ZM1.52589 15.8228H22.449C22.5068 15.8228 22.5622 15.7997 22.6031 15.7584C22.644 15.7172 22.6669 15.6613 22.6669 15.603V5.71379H1.30794V15.603C1.30794 15.6613 1.33091 15.7172 1.37178 15.7584C1.41265 15.7997 1.46809 15.8228 1.52589 15.8228ZM3.48743 12.9659C3.48743 13.1408 3.55632 13.3085 3.67894 13.4321C3.80156 13.5557 3.96787 13.6252 4.14128 13.6252H7.62846C7.80187 13.6252 7.96818 13.5557 8.0908 13.4321C8.21342 13.3085 8.2823 13.1408 8.2823 12.9659C8.2823 12.7911 8.21342 12.6234 8.0908 12.4997C7.96818 12.3761 7.80187 12.3066 7.62846 12.3066H4.14128C3.96787 12.3066 3.80156 12.3761 3.67894 12.4997C3.55632 12.6234 3.48743 12.7911 3.48743 12.9659ZM10.4618 12.9659C10.4618 13.1408 10.5307 13.3085 10.6533 13.4321C10.7759 13.5557 10.9422 13.6252 11.1156 13.6252H12.8592C13.0326 13.6252 13.1989 13.5557 13.3216 13.4321C13.4442 13.3085 13.5131 13.1408 13.5131 12.9659C13.5131 12.7911 13.4442 12.6234 13.3216 12.4997C13.1989 12.3761 13.0326 12.3066 12.8592 12.3066H11.1156C10.9422 12.3066 10.7759 12.3761 10.6533 12.4997C10.5307 12.6234 10.4618 12.7911 10.4618 12.9659Z" fill="#1F518F"/>
</svg>
