<svg width="22" height="21" viewBox="0 0 22 21" fill="none" xmlns="http://www.w3.org/2000/svg">
<path d="M21 1.45923H1V20.2113H21V1.45923Z" stroke="#013A80" stroke-width="1.05" stroke-miterlimit="10"/>
<path d="M8.49839 1.19366C8.49839 1.19366 8.50969 3.03568 6.37329 4.63984C4.2369 6.24399 1.78399 5.36447 1.19243 12.9372C0.600874 20.5099 1.84805 20.2168 1.84805 20.2168" stroke="#013A80" stroke-width="1.05" stroke-miterlimit="10"/>
<path d="M12.9556 1C12.9556 1 13.2984 2.7701 15.3934 4.37426C17.4883 5.97842 19.67 6.255 20.3105 13.5899C20.951 20.9247 20.4951 20.1724 20.4951 20.1724" stroke="#013A80" stroke-width="1.05" stroke-miterlimit="10"/>
<path d="M4.36133 10.8408V19.6913" stroke="#013A80" stroke-width="1.05" stroke-miterlimit="10"/>
<path d="M17.3906 10.8408V19.6913" stroke="#013A80" stroke-width="1.05" stroke-miterlimit="10"/>
<path d="M10.0054 8.9488C10.0054 8.9488 11.0415 6.89105 11.8667 9.23644L11.9383 15.1663C11.9383 15.1663 14.2103 17.7661 15.2993 17.7606C16.2186 17.7606 16.2638 13.3796 15.8004 11.4104C15.3369 9.44111 15.0468 8.32926 13.5924 6.46512C12.2435 4.73374 11.878 7.43868 11.878 7.43868L11.8667 9.41898" stroke="#013A80" stroke-width="1.05" stroke-miterlimit="10"/>
<path d="M10.0165 9.37477V15.194C10.0165 15.194 7.69543 17.7164 6.54622 17.7164C5.62685 17.7164 5.54019 13.2247 6.00741 11.261C6.47463 9.29733 6.71201 8.34037 8.16642 6.47069C9.51532 4.73931 9.99385 7.45531 9.99385 7.45531L10.0165 9.37477Z" stroke="#013A80" stroke-width="1.05" stroke-miterlimit="10"/>
<path d="M9.99414 1.45923L10.0167 8.19669" stroke="#013A80" stroke-width="1.05" stroke-miterlimit="10"/>
<path d="M11.7761 1.60291L11.7686 9.20882" stroke="#013A80" stroke-width="1.05" stroke-miterlimit="10"/>
</svg>
