<svg width="24" height="25" viewBox="0 0 24 25" fill="none" xmlns="http://www.w3.org/2000/svg">
<path d="M3.9681 2.68585C4.20189 2.68586 4.43156 2.62381 4.63403 2.50595C4.8365 2.38808 5.00464 2.21856 5.12153 2.01441C5.23843 1.81026 5.29998 1.57868 5.29998 1.34295C5.29998 1.10721 5.23845 0.87563 5.12156 0.671477C5.00466 0.467324 4.83653 0.297793 4.63407 0.179924C4.4316 0.0620552 4.20193 1.49722e-06 3.96814 0C3.73435 -1.49716e-06 3.50468 0.0620495 3.30221 0.179916C3.09974 0.297782 2.93161 0.467311 2.81472 0.671463H2.63625C2.10641 0.671463 1.59826 0.883692 1.22361 1.26146C0.848954 1.63923 0.638474 2.1516 0.638474 2.68585V8.72901C0.270884 8.72901 -0.0307798 9.0305 0.00251639 9.3998C0.137009 10.8866 0.715216 12.2975 1.66091 13.4463C2.6066 14.5951 3.87537 15.428 5.29995 15.8351V17.458C5.29995 18.335 5.85599 19.0816 6.6318 19.3583C6.63886 20.6494 7.15429 21.8848 8.06471 22.7927C8.97512 23.7006 10.2059 24.2066 11.4864 24.1995C12.7668 24.1924 13.992 23.6727 14.8925 22.7547C15.7929 21.8367 16.2948 20.5956 16.2877 19.3045V16.6187C16.2877 15.9509 16.5508 15.3104 17.0191 14.8382C17.4874 14.366 18.1226 14.1007 18.7849 14.1007C19.4472 14.1007 20.0824 14.366 20.5507 14.8382C21.019 15.3104 21.2821 15.9509 21.2821 16.6187V18.2436C20.8376 18.402 20.463 18.7138 20.2244 19.1238C19.9858 19.5338 19.8987 20.0156 19.9784 20.4842C20.0581 20.9527 20.2995 21.3777 20.6599 21.6841C21.0204 21.9905 21.4766 22.1586 21.9481 22.1586C22.4195 22.1586 22.8758 21.9905 23.2362 21.6841C23.5966 21.3777 23.838 20.9527 23.9177 20.4842C23.9974 20.0156 23.9103 19.5338 23.6717 19.1238C23.4331 18.7138 23.0585 18.402 22.614 18.2436V16.6187C22.614 15.5947 22.2106 14.6127 21.4925 13.8886C20.7744 13.1646 19.8005 12.7578 18.7849 12.7578C17.7694 12.7578 16.7955 13.1646 16.0774 13.8886C15.3593 14.6127 14.9559 15.5947 14.9559 16.6187V19.3045C14.9629 20.2395 14.6014 21.139 13.9507 21.8051C13.3001 22.4712 12.4136 22.8495 11.4864 22.8566C10.5592 22.8637 9.66711 22.4991 9.00647 21.8431C8.34582 21.187 7.97071 20.2932 7.96365 19.3583C8.35326 19.2193 8.69056 18.9619 8.92908 18.6216C9.1676 18.2813 9.29561 17.8747 9.2955 17.458V15.8351C10.7201 15.428 11.9888 14.5951 12.9345 13.4463C13.8802 12.2975 14.4584 10.8866 14.5929 9.3998C14.6262 9.0305 14.3246 8.72901 13.957 8.72901V2.68585C13.957 2.1516 13.7465 1.63923 13.3718 1.26146C12.9972 0.883692 12.489 0.671463 11.9592 0.671463H11.7807C11.6341 0.415462 11.4078 0.215388 11.137 0.102269C10.8661 -0.0108496 10.5658 -0.0306918 10.2826 0.0458194C9.99945 0.122331 9.74921 0.29092 9.57073 0.525442C9.39226 0.759964 9.29551 1.04731 9.2955 1.34293C9.29551 1.63854 9.39226 1.92589 9.57073 2.16041C9.74921 2.39493 9.99945 2.56352 10.2826 2.64003C10.5658 2.71654 10.8661 2.6967 11.137 2.58358C11.4078 2.47046 11.6341 2.27039 11.7807 2.01439H11.9592C12.1358 2.01439 12.3052 2.08513 12.4301 2.21105C12.555 2.33698 12.6251 2.50777 12.6251 2.68585V8.72901H12.765C12.3967 8.72901 12.1037 9.03117 12.0524 9.39846C11.8915 10.5545 11.3217 11.613 10.448 12.379C9.57426 13.1449 8.45548 13.5667 7.29772 13.5667C6.13996 13.5667 5.02118 13.1449 4.14747 12.379C3.27376 11.613 2.70396 10.5545 2.54302 9.39846C2.49174 9.03117 2.19874 8.72901 1.83048 8.72901H1.97032V2.68585C1.97032 2.50777 2.04048 2.33698 2.16537 2.21105C2.29025 2.08513 2.45963 2.01439 2.63625 2.01439H2.81472C2.93161 2.21853 3.09973 2.38806 3.30219 2.50592C3.50465 2.62379 3.73432 2.68584 3.9681 2.68585Z" fill="#1F518F"/>
</svg>
