<svg width="24" height="17" viewBox="0 0 24 17" fill="none" xmlns="http://www.w3.org/2000/svg">
<path d="M19.35 6.09023C19.0141 4.37379 18.0976 2.82818 16.7571 1.71741C15.4165 0.606636 13.7351 -0.000395504 12 1.93331e-07C9.11 1.93331e-07 6.6 1.65364 5.35 4.0736C3.88023 4.23375 2.52101 4.93592 1.53349 6.04518C0.545971 7.15444 -0.000171702 8.59254 4.04928e-08 10.0832C4.04928e-08 13.4207 2.69 16.1331 6 16.1331H19C21.76 16.1331 24 13.8744 24 11.0915C24 8.42952 21.95 6.27173 19.35 6.09023ZM19 14.1164H6C3.79 14.1164 2 12.3115 2 10.0832C2 8.01611 3.53 6.29189 5.56 6.08015L6.63 5.96923L7.13 5.01133C7.58988 4.10866 8.28787 3.35146 9.14712 2.82308C10.0064 2.2947 10.9936 2.01564 12 2.01663C14.62 2.01663 16.88 3.8921 17.39 6.48347L17.69 7.99595L19.22 8.10686C19.9717 8.15784 20.6764 8.49404 21.1922 9.04781C21.708 9.60157 21.9966 10.3318 22 11.0915C22 12.7552 20.65 14.1164 19 14.1164ZM13.45 6.0499H10.55V9.07484H8L12 13.1081L16 9.07484H13.45V6.0499Z" fill="#1F518F"/>
</svg>
