<svg width="26" height="26" viewBox="0 0 26 26" fill="none" xmlns="http://www.w3.org/2000/svg">
<path d="M14.875 4.99957V3.57112H13.4583V2.14267H12.0417V3.57112H10.625V4.99957H12.0417V6.42801H13.4583V4.99957H14.875Z" fill="#1F518F"/>
<path fill-rule="evenodd" clip-rule="evenodd" d="M17.935 7.69005L19.3361 3.68611C19.7157 2.60049 19.1746 1.37202 18.0405 1.00991C16.7237 0.588521 14.5704 0 12.75 0C10.9296 0 8.77625 0.588521 7.45875 1.00991C6.32541 1.37274 5.78425 2.6012 6.16391 3.68611L7.5657 7.69005C7.1852 8.55982 7.02592 9.51157 7.10232 10.4591C7.17871 11.4066 7.48835 12.3199 8.00319 13.1163C8.51803 13.9127 9.2218 14.5669 10.0507 15.0198C10.8797 15.4727 11.8076 15.7099 12.7504 15.7099C13.6931 15.7099 14.621 15.4727 15.45 15.0198C16.2789 14.5669 16.9827 13.9127 17.4975 13.1163C18.0123 12.3199 18.322 11.4066 18.3984 10.4591C18.4748 9.51157 18.3155 8.55982 17.935 7.69005ZM12.75 1.42845C11.1633 1.42845 9.18779 1.95554 7.88729 2.37122C7.56146 2.4755 7.3702 2.84118 7.49983 3.21115L8.9335 7.30651C11.4743 6.49229 14.0257 6.49229 16.5665 7.30651L18.0002 3.21115C18.1298 2.84118 17.9385 2.4755 17.6127 2.37194C16.3122 1.95554 14.336 1.42845 12.75 1.42845ZM16.8626 8.91423C16.8249 8.90657 16.7873 8.89582 16.7514 8.88209C14.0781 7.87146 11.4219 7.87146 8.74862 8.88209C8.71249 8.89585 8.67529 8.9066 8.63741 8.91423C8.47384 9.54785 8.45643 10.2108 8.58652 10.8523C8.7166 11.4938 8.99073 12.0966 9.38786 12.6146C9.78499 13.1326 10.2946 13.552 10.8774 13.8405C11.4603 14.1291 12.101 14.2791 12.7504 14.2791C13.3997 14.2791 14.0404 14.1291 14.6233 13.8405C15.2062 13.552 15.7157 13.1326 16.1128 12.6146C16.51 12.0966 16.7841 11.4938 16.9142 10.8523C17.0443 10.2108 17.0262 9.54785 16.8626 8.91423Z" fill="#1F518F"/>
<path d="M19.8333 19.9983H21.25V21.4267H19.8333V22.8552H18.4167V21.4267H17V19.9983H18.4167V18.5698H19.8333V19.9983Z" fill="#1F518F"/>
<path fill-rule="evenodd" clip-rule="evenodd" d="M7.70596 15.7129C7.70596 15.7129 0 18.1363 0 21.046V25.7121H25.5V21.046C25.5 18.1363 17.794 15.7129 17.794 15.7129L13.5639 18.7077C13.3255 18.8764 13.0413 18.9669 12.75 18.9669C12.4587 18.9669 12.1745 18.8764 11.9361 18.7077L7.70596 15.7129ZM18.0207 17.2985L14.3785 19.8768C13.9015 20.2146 13.3328 20.3959 12.75 20.3959C12.1672 20.3959 11.5985 20.2146 11.1215 19.8768L7.47929 17.2985C6.45671 17.6598 5.45683 18.0834 4.48517 18.567C3.56717 19.0283 2.72708 19.5404 2.13633 20.0611C1.49812 20.6232 1.41667 20.9575 1.41667 21.046V24.2836H24.0833V21.046C24.0833 20.9575 24.0019 20.6232 23.3637 20.0604C22.7729 19.5404 21.9328 19.0283 21.0141 18.5662C20.1956 18.1595 19.357 17.7953 18.5017 17.4749C18.3246 17.4078 18.1631 17.3499 18.0207 17.2985Z" fill="#1F518F"/>
</svg>
