<svg width="29" height="25" viewBox="0 0 29 25" fill="none" xmlns="http://www.w3.org/2000/svg">
<path d="M27.2827 22.3382H25.4011V9.30828C25.4011 8.8146 25.2029 8.34114 24.85 7.99206C24.4971 7.64298 24.0186 7.44686 23.5195 7.44686H15.9933V1.86262C15.9935 1.52555 15.9012 1.19474 15.7262 0.905508C15.5513 0.616275 15.3002 0.379474 14.9998 0.22038C14.6994 0.0612856 14.361 -0.0141305 14.0207 0.00218119C13.6803 0.0184929 13.3509 0.12592 13.0675 0.312997L3.65964 6.51616C3.40156 6.6865 3.19006 6.91733 3.04398 7.18811C2.89789 7.45888 2.82176 7.76118 2.82234 8.06811V22.3382H0.940781C0.691271 22.3382 0.451979 22.4362 0.275548 22.6108C0.0991177 22.7853 0 23.022 0 23.2689C0 23.5157 0.0991177 23.7524 0.275548 23.927C0.451979 24.1015 0.691271 24.1996 0.940781 24.1996H27.2827C27.5322 24.1996 27.7715 24.1015 27.9479 23.927C28.1243 23.7524 28.2234 23.5157 28.2234 23.2689C28.2234 23.022 28.1243 22.7853 27.9479 22.6108C27.7715 22.4362 27.5322 22.3382 27.2827 22.3382ZM23.5195 9.30828V22.3382H15.9933V9.30828H23.5195ZM4.70391 8.06811L14.1117 1.86262V22.3382H4.70391V8.06811ZM12.2302 11.1697V13.0311C12.2302 13.2779 12.131 13.5147 11.9546 13.6892C11.7782 13.8638 11.5389 13.9618 11.2894 13.9618C11.0399 13.9618 10.8006 13.8638 10.6241 13.6892C10.4477 13.5147 10.3486 13.2779 10.3486 13.0311V11.1697C10.3486 10.9229 10.4477 10.6861 10.6241 10.5116C10.8006 10.337 11.0399 10.239 11.2894 10.239C11.5389 10.239 11.7782 10.337 11.9546 10.5116C12.131 10.6861 12.2302 10.9229 12.2302 11.1697ZM8.46703 11.1697V13.0311C8.46703 13.2779 8.36791 13.5147 8.19148 13.6892C8.01505 13.8638 7.77576 13.9618 7.52625 13.9618C7.27674 13.9618 7.03745 13.8638 6.86102 13.6892C6.68459 13.5147 6.58547 13.2779 6.58547 13.0311V11.1697C6.58547 10.9229 6.68459 10.6861 6.86102 10.5116C7.03745 10.337 7.27674 10.239 7.52625 10.239C7.77576 10.239 8.01505 10.337 8.19148 10.5116C8.36791 10.6861 8.46703 10.9229 8.46703 11.1697ZM8.46703 17.6846V19.5461C8.46703 19.7929 8.36791 20.0296 8.19148 20.2042C8.01505 20.3787 7.77576 20.4768 7.52625 20.4768C7.27674 20.4768 7.03745 20.3787 6.86102 20.2042C6.68459 20.0296 6.58547 19.7929 6.58547 19.5461V17.6846C6.58547 17.4378 6.68459 17.2011 6.86102 17.0265C7.03745 16.852 7.27674 16.7539 7.52625 16.7539C7.77576 16.7539 8.01505 16.852 8.19148 17.0265C8.36791 17.2011 8.46703 17.4378 8.46703 17.6846ZM12.2302 17.6846V19.5461C12.2302 19.7929 12.131 20.0296 11.9546 20.2042C11.7782 20.3787 11.5389 20.4768 11.2894 20.4768C11.0399 20.4768 10.8006 20.3787 10.6241 20.2042C10.4477 20.0296 10.3486 19.7929 10.3486 19.5461V17.6846C10.3486 17.4378 10.4477 17.2011 10.6241 17.0265C10.8006 16.852 11.0399 16.7539 11.2894 16.7539C11.5389 16.7539 11.7782 16.852 11.9546 17.0265C12.131 17.2011 12.2302 17.4378 12.2302 17.6846Z" fill="#1F518F"/>
</svg>
