<svg width="19" height="26" viewBox="0 0 19 26" fill="none" xmlns="http://www.w3.org/2000/svg">
<path d="M8.37534 7.07834C8.83134 6.25192 9.05934 5.84053 9.40014 5.84053C9.74094 5.84053 9.96894 6.25192 10.4249 7.07834L10.5425 7.29129C10.6721 7.52603 10.7369 7.64219 10.8377 7.71963C10.9397 7.79706 11.0657 7.8261 11.3177 7.88297L11.5457 7.93621C12.4313 8.13828 12.8741 8.23871 12.9797 8.57992C13.0853 8.92234 12.7829 9.27808 12.1793 9.98954L12.0233 10.1735C11.8517 10.3755 11.7653 10.476 11.7269 10.6018C11.6885 10.7276 11.7017 10.8619 11.7269 11.1318L11.7509 11.3774C11.8421 12.3272 11.8877 12.8027 11.6129 13.0133C11.3369 13.2238 10.9217 13.0314 10.0925 12.6467L9.87894 12.5474C9.64254 12.4385 9.52494 12.3841 9.40014 12.3841C9.27534 12.3841 9.15774 12.4385 8.92134 12.5474L8.70774 12.6467C7.87854 13.0326 7.46334 13.2238 7.18734 13.0133C6.91134 12.8027 6.95814 12.3272 7.04934 11.3774L7.07334 11.1318C7.09854 10.8619 7.11174 10.7276 7.07334 10.6018C7.03494 10.4772 6.94854 10.3755 6.77694 10.1735L6.62094 9.98954C6.01734 9.27808 5.71494 8.92234 5.82054 8.57992C5.92614 8.23871 6.36894 8.13828 7.25454 7.93621L7.48254 7.88297C7.73454 7.8261 7.86054 7.79827 7.96254 7.71963C8.06334 7.64219 8.12814 7.52603 8.25774 7.29129L8.37534 7.07834Z" stroke="#1F518F" stroke-width="1.5"/>
<path d="M17.8 9.46985C17.8 10.5821 17.5827 11.6835 17.1606 12.7111C16.7384 13.7387 16.1197 14.6724 15.3397 15.4589C14.5597 16.2454 13.6337 16.8693 12.6145 17.295C11.5954 17.7206 10.5031 17.9397 9.4 17.9397C8.2969 17.9397 7.20459 17.7206 6.18546 17.295C5.16632 16.8693 4.24032 16.2454 3.4603 15.4589C2.68029 14.6724 2.06155 13.7387 1.63941 12.7111C1.21727 11.6835 1 10.5821 1 9.46985C1 7.2235 1.885 5.06916 3.4603 3.48076C5.03561 1.89236 7.17218 1 9.4 1C11.6278 1 13.7644 1.89236 15.3397 3.48076C16.915 5.06916 17.8 7.2235 17.8 9.46985Z" stroke="#1F518F" stroke-width="1.5"/>
<path d="M3.82122 16.7294L3.05682 19.5402C2.30322 22.3135 1.92642 23.7001 2.42922 24.4588C2.60562 24.725 2.84202 24.9379 3.11682 25.0795C3.89922 25.4812 5.10882 24.846 7.52682 23.5755C8.33082 23.152 8.73402 22.9415 9.16122 22.8955C9.31997 22.8783 9.48008 22.8783 9.63882 22.8955C10.066 22.9415 10.468 23.1532 11.2732 23.5755C13.6912 24.846 14.9008 25.4812 15.6832 25.0795C15.958 24.9379 16.1944 24.725 16.3708 24.4588C16.8748 23.7001 16.4968 22.3135 15.7432 19.5402L14.9788 16.7294" stroke="#1F518F" stroke-width="1.5" stroke-linecap="round"/>
</svg>
