<svg width="26" height="26" viewBox="0 0 26 26" fill="none" xmlns="http://www.w3.org/2000/svg">
<path d="M17.6835 15.7243C17.4764 15.6765 17.2803 15.7981 17.1289 15.945C16.9875 16.0822 16.8676 16.2579 16.7879 16.402H9.0461L9.01719 16.3448L9.01692 16.3443L9.00986 16.3301L8.94267 16.3634L9.00986 16.3301L9.00913 16.3286C8.93998 16.1891 8.85734 16.0225 8.75247 15.9C8.64587 15.7755 8.5026 15.6817 8.31662 15.7243L8.31656 15.7243C6.50652 16.1397 4.66348 16.9472 3.27122 17.9715C1.88241 18.9932 0.925 20.244 0.925 21.5495V25.1996V25.2746H1H25H25.075V25.1996V21.5495C25.075 20.5204 24.4799 19.5259 23.5511 18.6526C22.627 17.7835 21.3641 17.0259 19.9962 16.4625L19.9634 16.3963L19.9045 16.4251C19.1817 16.133 18.4301 15.8955 17.6835 15.7243ZM17.6835 15.7243L17.6667 15.7974L17.6834 15.7243C17.6835 15.7243 17.6835 15.7243 17.6835 15.7243ZM17.6835 17.8964H17.638H8.19533H8.14987L8.12884 17.8561L7.88158 17.3821L7.74928 17.4222C7.74684 17.4518 7.74484 17.4837 7.74362 17.5182L7.74361 17.5183C7.73515 17.7449 7.75207 18.0154 7.78965 18.2919L7.78967 18.2921C7.82601 18.5638 7.88295 18.8323 7.96 19.0951C8.42718 19.1624 8.85816 19.3882 9.18129 19.7361C9.51571 20.0961 9.71313 20.5635 9.73883 21.0558C9.76453 21.5482 9.61687 22.0339 9.32181 22.4273C9.02675 22.8206 8.60321 23.0963 8.12593 23.2055C7.64863 23.3147 7.14844 23.2503 6.71373 23.0238C6.27903 22.7972 5.93785 22.4232 5.75029 21.9678C5.56273 21.5124 5.54081 21.0049 5.68836 20.5348C5.83031 20.0826 6.12035 19.6929 6.51028 19.4291C6.42527 19.1223 6.36158 18.8099 6.31967 18.4942C6.296 18.321 6.27898 18.1469 6.26864 17.9724C5.48658 18.3168 4.75872 18.7274 4.14581 19.1778C2.87053 20.1171 2.40833 20.9796 2.40833 21.5495V23.7802H23.5917V21.5495C23.5917 20.979 23.1295 20.1166 21.8545 19.1787C21.3289 18.7977 20.771 18.4643 20.1872 18.1826C20.1602 18.4826 20.1144 18.7805 20.0499 19.0747H20.3333H20.3334C20.4712 19.0748 20.6062 19.1135 20.7234 19.1866C20.8405 19.2596 20.9351 19.3641 20.9965 19.4881C20.9965 19.4881 20.9965 19.4881 20.9965 19.4881L21.6631 20.8323C21.715 20.9363 21.7417 21.0506 21.7417 21.1663V22.5107C21.7417 22.7087 21.6637 22.8987 21.5247 23.0389C21.3856 23.1791 21.1969 23.258 21 23.258H19.6667H19.5917V23.183V21.8385V21.7635H19.6667H20.2583V21.3425L19.8748 20.5691H18.1252L17.7417 21.3425V21.7635H18.3333H18.4083V21.8385V23.183V23.258H18.3333H17C16.8031 23.258 16.6144 23.1791 16.4753 23.0389C16.3363 22.8987 16.2583 22.7087 16.2583 22.5107V21.1663C16.2583 21.0506 16.285 20.9363 16.3369 20.8323L17.0035 19.4881L17.0035 19.4881L17.0707 19.5214C17.126 19.4098 17.2111 19.3159 17.3163 19.2502C17.4216 19.1846 17.5429 19.1498 17.6667 19.1497L17.6835 17.8964ZM17.6835 17.8964L17.7045 17.8561L17.9737 17.34C18.2277 17.4121 18.4796 17.4916 18.729 17.5786C18.7329 17.7921 18.7158 18.0392 18.6817 18.2927C18.6441 18.5692 18.5888 18.8337 18.5273 19.0454L18.5269 19.0468C18.5243 19.0564 18.5217 19.0656 18.519 19.0747L17.6835 17.8964ZM13 14.5192C16.724 14.5192 19.7417 11.4756 19.7417 7.72211C19.7417 3.96865 16.724 0.925 13 0.925C9.276 0.925 6.25833 3.96865 6.25833 7.72211C6.25833 11.4756 9.276 14.5192 13 14.5192ZM18.2583 7.72211C18.2583 9.12867 17.7042 10.4775 16.718 11.4719C15.7318 12.4663 14.3944 13.0248 13 13.0248C11.6056 13.0248 10.2682 12.4663 9.28202 11.4719C8.29582 10.4775 7.74167 9.12867 7.74167 7.72211C7.74167 6.31555 8.29582 4.96672 9.28202 3.97232C10.2682 2.97794 11.6056 2.41942 13 2.41942C14.3944 2.41942 15.7318 2.97794 16.718 3.97232C17.7042 4.96672 18.2583 6.31555 18.2583 7.72211ZM8.25833 21.1663C8.25833 21.511 7.98362 21.7736 7.66667 21.7736C7.34967 21.7736 7.075 21.5117 7.075 21.1663C7.075 20.8216 7.34972 20.559 7.66667 20.559C7.98367 20.559 8.25833 20.821 8.25833 21.1663Z" fill="#1F518F" stroke="#1F518F" stroke-width="0.15"/>
</svg>
