<svg width="283" height="138" viewBox="0 0 283 138" fill="none" xmlns="http://www.w3.org/2000/svg">
<path d="M68.9045 1.99864C70.717 4.11094 70.3745 25.8191 68.9045 25.8191C33.0096 25.8191 22.7621 59.145 23.9467 73.66C25.0456 87.2472 40.003 120.373 67.4487 117.091C68.5334 116.962 68.462 133.375 65.1651 134.945C53.1764 140.626 8.87509 120.302 1.5534 79.9398C-10.1356 15.5288 62.4534 -5.55141 68.9045 1.99864Z" fill="#E8E8E8"/>
<path d="M68.7189 37.0085L68.9044 101.534C68.9044 101.534 44.2276 102.319 36.806 79.8113C29.3987 57.2895 44.8413 37.8363 68.7189 37.0085Z" fill="#E8E8E8"/>
<path d="M87.1302 25.8191C93.8618 25.8191 99.3188 20.3621 99.3188 13.6306C99.3188 6.89903 93.8618 1.44202 87.1302 1.44202C80.3986 1.44202 74.9417 6.89903 74.9417 13.6306C74.9417 20.3621 80.3986 25.8191 87.1302 25.8191Z" fill="#E8E8E8"/>
<path d="M87.1302 81.8094C93.8618 81.8094 99.3188 76.3524 99.3188 69.6208C99.3188 62.8893 93.8618 57.4323 87.1302 57.4323C80.3986 57.4323 74.9417 62.8893 74.9417 69.6208C74.9417 76.3524 80.3986 81.8094 87.1302 81.8094Z" fill="#E8E8E8"/>
<path d="M87.1302 137.343C93.8618 137.343 99.3188 131.886 99.3188 125.154C99.3188 118.423 93.8618 112.966 87.1302 112.966C80.3986 112.966 74.9417 118.423 74.9417 125.154C74.9417 131.886 80.3986 137.343 87.1302 137.343Z" fill="#E8E8E8"/>
<path d="M118.8 0.5C121.741 0.5 123.91 1.44197 125.309 3.31165C127.278 5.01005 128.249 6.56573 128.249 7.99297C128.82 7.99297 129.119 10.9188 129.191 16.7847V18.5259C129.191 20.3956 128.52 21.3376 127.178 21.3376H124.909C123.482 21.3376 122.768 20.2672 122.768 18.1263V12.817C122.768 9.69138 121.355 8.1357 118.529 8.1357H118.401C116.431 8.1357 115.19 8.89213 114.661 10.405C114.39 11.3327 114.262 11.9036 114.262 12.1462V54.5635C114.262 56.4618 115.061 57.7605 116.674 58.4456H120.413C121.898 57.8176 122.64 56.6188 122.64 54.8347C122.64 48.7119 122.954 45.6433 123.582 45.6433C124.381 45.3722 125.052 45.2437 125.594 45.2437H126.393C128.263 45.2437 129.205 46.0287 129.205 47.6129V50.2961C129.205 55.8623 128.62 59.4304 127.464 61.0003C127.464 63.0555 125.252 64.7825 120.813 66.1669C119.742 66.2526 118.943 66.2954 118.401 66.2954C115.846 66.2954 113.434 65.4676 111.179 63.7977C110.251 62.9985 109.366 61.1716 108.496 58.3172C108.053 56.7758 107.825 55.0345 107.825 53.0935V15.0435C107.825 8.89213 109.167 4.9387 111.836 3.1832C112.992 1.38489 115.318 0.5 118.8 0.5Z" fill="#E8E8E8"/>
<path d="M141.408 1.44202H142.749C144.319 1.44202 145.119 2.24127 145.119 3.85404V54.9632C145.119 56.6616 145.832 57.5037 147.259 57.5037H155.152C157.022 57.5037 157.964 58.4456 157.964 60.3153C157.964 63.4981 157.607 65.0823 156.893 65.0823C156.18 65.2535 155.423 65.3535 154.624 65.3535H141.294C139.695 65.3535 138.882 64.7826 138.882 63.655V3.58286C138.867 2.15563 139.709 1.44202 141.408 1.44202Z" fill="#E8E8E8"/>
<path d="M169.068 1.44202C170.552 1.44202 171.294 2.11282 171.294 3.45442V63.3981C171.294 64.7112 170.366 65.3677 168.525 65.3677H167.583C165.799 65.3677 164.9 64.5399 164.9 62.8701V3.99677C164.9 2.29837 165.442 1.4563 166.499 1.4563H169.068V1.44202Z" fill="#E8E8E8"/>
<path d="M186.009 1.44202C187.878 1.52765 188.82 2.46963 188.82 4.25366C189.177 5.29554 189.762 8.27846 190.562 13.2167C190.976 14.5868 191.718 18.2691 192.788 24.2777L195.471 37.2084C195.914 37.7508 196.185 38.0077 196.271 38.0077H196.399C197.198 38.0077 197.598 37.4225 197.598 36.2665C197.598 35.9097 197.555 35.5528 197.469 35.196C197.555 32.7555 197.598 30.7716 197.598 29.2159V27.3463C197.598 26.0618 197.555 25.1341 197.469 24.5346C197.555 23.7639 197.598 22.7791 197.598 21.5945V17.8552C197.598 16.5992 197.555 15.6715 197.469 15.0435C197.555 14.3014 197.598 13.3309 197.598 12.1463V8.40691C197.598 7.52203 197.555 6.39452 197.469 5.0672C197.469 2.65518 198.226 1.4563 199.739 1.4563H200.938C202.451 1.4563 203.207 2.12706 203.207 3.46866V63.4124C203.207 64.7254 202.137 65.382 199.996 65.382H199.325C197.355 65.382 196.385 64.5114 196.385 62.7559C196.028 61.5998 194.786 55.3628 192.645 44.0734C191.661 39.8203 191.004 36.3806 190.676 33.7688C190.348 33.3264 190.034 32.2274 189.734 30.4719L189.192 30.0723H188.792C188.25 30.3435 187.993 30.8144 187.993 31.4995V62.6274C187.993 64.4686 187.008 65.3963 185.053 65.3963H184.653C182.869 65.3963 181.97 64.9681 181.97 64.0975C181.827 64.0975 181.727 63.655 181.699 62.7559V4.28219C181.699 2.41252 182.369 1.47055 183.711 1.47055H186.009V1.44202Z" fill="#E8E8E8"/>
<path d="M218.207 1.44202C219.691 1.44202 220.434 2.11282 220.434 3.45442V63.3981C220.434 64.7112 219.506 65.3677 217.665 65.3677H216.723C214.939 65.3677 214.04 64.5399 214.04 62.8701V3.99677C214.04 2.29837 214.582 1.4563 215.638 1.4563H218.207V1.44202Z" fill="#E8E8E8"/>
<path d="M241.4 0.5C244.34 0.5 246.509 1.44197 247.908 3.31165C249.877 5.01005 250.848 6.56573 250.848 7.99297C251.419 7.99297 251.719 10.9188 251.79 16.7847V18.5259C251.79 20.3956 251.119 21.3376 249.778 21.3376H247.508C246.081 21.3376 245.367 20.2672 245.367 18.1263V12.817C245.367 9.69138 243.954 8.1357 241.128 8.1357H241C239.03 8.1357 237.789 8.89213 237.261 10.405C236.99 11.3327 236.861 11.9036 236.861 12.1462V54.5635C236.861 56.4618 237.66 57.7605 239.273 58.4456H243.012C244.497 57.8176 245.239 56.6188 245.239 54.8347C245.239 48.7119 245.553 45.6433 246.181 45.6433C246.98 45.3722 247.651 45.2437 248.193 45.2437H248.993C250.862 45.2437 251.804 46.0287 251.804 47.6129V50.2961C251.804 55.8623 251.219 59.4304 250.063 61.0003C250.063 63.0555 247.851 64.7825 243.412 66.1669C242.342 66.2526 241.542 66.2954 241 66.2954C238.445 66.2954 236.033 65.4676 233.778 63.7977C232.851 62.9985 231.966 61.1716 231.095 58.3172C230.653 56.7758 230.424 55.0345 230.424 53.0935V15.0435C230.424 8.89213 231.766 4.9387 234.435 3.1832C235.605 1.38489 237.931 0.5 241.4 0.5Z" fill="#E8E8E8"/>
<path d="M267.489 1.44202H272.314C274.454 1.44202 275.525 3.09761 275.525 6.39451L279.764 38.6785C280.649 45.5149 281.319 51.2524 281.776 55.8909L282.718 63.655V63.9262C282.718 64.8825 281.833 65.3535 280.035 65.3535H279.492C277.38 65.3535 276.324 64.6541 276.324 63.2554C275.639 55.8481 275.011 52.1516 274.454 52.1516C273.912 51.7947 273.427 51.6092 272.984 51.6092H269.901C269.331 51.6092 268.76 51.5664 268.16 51.4808C266.105 51.4808 265.077 52.28 265.077 53.8928C264.278 60.1726 263.879 63.5551 263.879 64.0547C263.607 64.911 262.68 65.3535 261.067 65.3535H260.039C258.341 65.3535 257.499 64.8396 257.499 63.7978C258.655 54.6635 259.369 48.3551 259.64 44.8441C260.596 38.2789 261.153 33.9972 261.338 31.9991L262.937 19.996C263.921 12.8599 264.407 9.17761 264.407 8.93498C264.678 8.24991 264.949 6.15188 265.206 2.64089C265.606 1.84164 266.362 1.44202 267.489 1.44202ZM266.419 41.6186V41.8898C266.419 43.1457 267.218 43.7594 268.831 43.7594H271.243C272.941 43.7594 273.784 42.9174 273.784 41.219C273.512 37.4082 273.198 34.4681 272.842 32.3844L271.643 21.5945C271.643 18.2976 271.1 16.642 270.044 16.642C269.302 16.642 268.76 18.8257 268.446 23.193L266.419 41.6186Z" fill="#E8E8E8"/>
<path d="M110.808 72.3468H125.08C126.679 72.3468 127.492 73.1889 127.492 74.8873V77.4277C127.492 79.2974 126.693 80.2394 125.08 80.2394H116.56C115.304 80.5106 114.69 81.1243 114.69 82.1091V98.7934C114.69 99.7211 115.275 100.249 116.431 100.392H124.823C126.693 100.392 127.635 101.091 127.635 102.49V106.372C127.635 107.528 127.05 108.113 125.894 108.113H117.602C115.875 108.113 114.904 108.87 114.704 110.383V126.796C114.704 127.681 115.375 128.223 116.717 128.394H124.566C126.536 128.394 127.507 129.336 127.507 131.206V132.947C127.507 135.059 126.879 136.116 125.637 136.116C125.194 136.201 124.609 136.244 123.896 136.244H110.965C109.267 136.244 108.424 135.673 108.424 134.546C108.339 134.46 108.296 134.103 108.296 133.475V76.0719C108.296 73.6599 108.881 72.461 110.037 72.461C110.009 72.3896 110.28 72.3468 110.808 72.3468Z" fill="#E8E8E8"/>
<path d="M146.803 71.4619H147.202C151.456 71.4619 154.61 73.7312 156.651 78.2841C157.279 79.7969 157.593 81.9378 157.593 84.7066V90.0159C157.593 91.5288 156.793 92.2852 155.181 92.2852H153.982C152.226 92.2852 151.356 91.6144 151.356 90.2728V83.7646C151.356 81.267 150.414 79.7541 148.544 79.2118C147.445 79.1261 146.86 79.0833 146.803 79.0833C144.034 79.0833 142.649 80.8246 142.649 84.307V90.1444C142.649 92.7562 143.763 95.1254 145.989 97.2377C145.989 97.5089 148.287 99.7639 152.897 104.017C153.668 105.059 154.424 106.401 155.166 108.028C155.737 108.028 156.494 109.94 157.436 113.779C157.521 114.85 157.564 116.049 157.564 117.39V123.641C157.564 129.707 155.966 133.803 152.74 135.944C150.128 136.9 148.173 137.371 146.903 137.371C145.033 137.371 142.749 136.629 140.08 135.145C138.596 133.775 137.44 131.32 136.598 127.781C136.327 125.468 136.198 123.328 136.198 121.358V119.26C136.198 117.205 137.083 116.177 138.882 116.177H139.952C141.736 116.177 142.635 116.848 142.635 118.189V123.898C142.635 127.638 143.834 129.522 146.246 129.522H147.188C149.871 129.522 151.199 128.137 151.199 125.368C151.284 125.368 151.327 124.969 151.327 124.17V116.448C151.327 114.778 150.528 112.638 148.915 110.026C142.05 103.489 138.61 99.7924 138.61 98.9647C137.012 95.6677 136.198 92.1853 136.198 88.5316V88.4031C136.198 83.1367 136.555 79.8112 137.269 78.4125C138.068 76.029 139.895 73.931 142.749 72.1184C144.062 71.676 145.404 71.4619 146.803 71.4619Z" fill="#E8E8E8"/>
<path d="M169.553 72.3896H176.775C180.4 72.3896 182.883 73.3744 184.225 75.3297C186.194 77.0852 187.165 79.0405 187.165 81.2099C187.607 82.523 187.836 83.5506 187.836 84.2928V95.7534C187.065 100.306 186.394 102.576 185.823 102.576C183.14 106.115 180.571 107.885 178.102 107.885C175.162 107.885 173.692 108.556 173.692 109.897V133.675C173.692 135.431 172.893 136.301 171.28 136.301H169.41C167.812 136.301 166.998 135.602 166.998 134.203V75.0586C167.012 73.2888 167.854 72.3896 169.553 72.3896ZM173.706 81.7523V98.7078C174.177 99.7782 174.933 100.306 175.975 100.306H177.717C180 100.306 181.156 99.0503 181.156 96.567V83.4935C180.585 81.267 179.272 80.1538 177.188 80.1538H175.59C174.591 80.1538 173.963 80.6819 173.706 81.7523Z" fill="#E8E8E8"/>
<path d="M206.218 71.4619C208.188 71.4619 210.543 72.2612 213.312 73.8739C214.382 74.8587 215.495 77.2707 216.651 81.0957C216.823 82.3802 216.923 84.1072 216.923 86.3194V124.184C216.923 126.596 216.38 129.265 215.324 132.205C212.912 135.659 210.058 137.371 206.761 137.371H206.361C206.275 137.371 206.233 137.414 206.233 137.5C206.061 137.414 205.919 137.371 205.833 137.371C201.608 137.371 198.454 135.017 196.385 130.321C195.757 127.609 195.443 124.583 195.443 121.215V87.3184C195.443 80.5962 196.599 76.3288 198.925 74.5162C200.595 72.4752 203.036 71.4619 206.218 71.4619ZM201.98 83.2366V124.583C201.98 127.795 202.679 129.407 204.078 129.407C204.078 129.579 204.877 129.679 206.49 129.679C208.359 129.679 209.615 128.608 210.229 126.467V82.4516C210.229 80.3108 208.802 79.2403 205.947 79.2403C203.293 79.5686 201.98 80.9102 201.98 83.2366Z" fill="#E8E8E8"/>
<path d="M229.268 72.3896H235.819C240.757 72.3896 243.954 73.6456 245.41 76.129C246.837 79.2261 247.551 81.4954 247.551 82.9512C247.722 82.9512 247.822 84.1358 247.822 86.5192V92.6706C247.822 97.6088 246.98 100.863 245.282 102.433C245.282 102.647 244.126 103.746 241.799 105.73L241.528 106.672V106.8C241.528 107.785 243.184 113.737 246.481 124.683L249.563 134.988C249.563 135.759 248.807 136.187 247.294 136.287H246.224C243.812 136.287 242.613 135.359 242.613 133.518C240.472 125.311 239.402 121.073 239.402 120.801C238.517 116.905 237.446 112.952 236.233 108.941C235.791 108.499 235.519 108.27 235.434 108.27H234.363C233.921 108.413 233.693 108.998 233.693 110.011V131.905C233.693 134.731 233.15 136.144 232.094 136.144C231.495 136.23 230.924 136.273 230.353 136.273H229.411C227.812 136.273 226.999 135.659 226.999 134.446V74.2593C226.999 73.0176 227.755 72.3896 229.268 72.3896ZM233.693 82.6943V98.037C233.693 99.5499 234.235 100.306 235.291 100.306H237.66C239.23 100.306 240.401 99.2359 241.143 97.095V83.622C241.143 81.3098 239.716 80.1395 236.861 80.1395H235.833C234.406 80.1538 233.693 80.9959 233.693 82.6943Z" fill="#E8E8E8"/>
<path d="M262.994 72.3468H267.818C269.959 72.3468 271.029 74.0024 271.029 77.2993L275.268 109.583C276.153 116.42 276.824 122.157 277.28 126.796L278.222 134.56V134.831C278.222 135.787 277.337 136.258 275.539 136.258H274.997C272.884 136.258 271.828 135.559 271.828 134.16C271.143 126.753 270.515 123.056 269.959 123.056C269.416 122.7 268.931 122.514 268.488 122.514H265.406C264.835 122.514 264.264 122.471 263.664 122.386C261.609 122.386 260.582 123.185 260.582 124.798C259.782 131.077 259.383 134.46 259.383 134.959C259.112 135.816 258.184 136.258 256.571 136.258H255.544C253.845 136.258 253.003 135.744 253.003 134.703C254.159 125.568 254.873 119.26 255.144 115.749C256.1 109.184 256.657 104.902 256.842 102.904L258.441 90.9008C259.426 83.7647 259.911 80.0824 259.911 79.8398C260.182 79.1547 260.453 77.0567 260.71 73.5457C261.095 72.7464 261.866 72.3468 262.994 72.3468ZM261.923 112.538V112.809C261.923 114.065 262.723 114.678 264.335 114.678H266.747C268.446 114.678 269.288 113.836 269.288 112.138C269.017 108.327 268.703 105.387 268.346 103.303L267.147 92.5136C267.147 89.2167 266.605 87.5611 265.548 87.5611C264.806 87.5611 264.264 89.7448 263.95 94.1121L261.923 112.538Z" fill="#E8E8E8"/>
<path d="M68.9045 116.191V136.158C68.9045 136.158 37.2342 139.869 15.3833 110.254C-8.8083 77.4706 6.2918 71.0195 13.9846 70.7483C21.5774 70.4772 23.0618 73.4743 24.3035 76.0862C25.5737 78.7408 26.1589 91.5431 38.4188 103.646C56.9871 121.986 68.9045 116.191 68.9045 116.191Z" fill="#ADADAD"/>
</svg>
