<svg width="21" height="25" viewBox="0 0 21 25" fill="none" xmlns="http://www.w3.org/2000/svg">
<path d="M10.282 12.5711C10.9695 12.5711 11.5582 12.3252 12.0482 11.8335C12.5382 11.3419 12.7828 10.7515 12.782 10.0625C12.782 9.37264 12.537 8.78187 12.047 8.29019C11.557 7.79851 10.9686 7.55308 10.282 7.55392C9.59448 7.55392 9.00573 7.79976 8.51573 8.29144C8.02573 8.78312 7.78115 9.37347 7.78198 10.0625C7.78198 10.7524 8.02698 11.3431 8.51698 11.8348C9.00698 12.3265 9.59532 12.5719 10.282 12.5711ZM10.282 24.6436C10.1153 24.6436 9.94865 24.6122 9.78198 24.5495C9.61532 24.4868 9.46948 24.4032 9.34448 24.2987C6.30282 21.6019 4.03198 19.0984 2.53198 16.788C1.03198 14.4776 0.281982 12.3194 0.281982 10.3134C0.281982 7.17763 1.2874 4.67951 3.29823 2.81899C5.30907 0.958461 7.63698 0.0281982 10.282 0.0281982C12.9278 0.0281982 15.2561 0.958461 17.267 2.81899C19.2778 4.67951 20.2828 7.17763 20.282 10.3134C20.282 12.3202 19.532 14.4788 18.032 16.7892C16.532 19.0996 14.2611 21.6028 11.2195 24.2987C11.0945 24.4032 10.9486 24.4868 10.782 24.5495C10.6153 24.6122 10.4486 24.6436 10.282 24.6436Z" fill="white"/>
</svg>
