<svg width="21" height="21" viewBox="0 0 21 21" fill="none" xmlns="http://www.w3.org/2000/svg">
<path d="M4.3042 8.99149C5.9042 12.1359 8.48198 14.7026 11.6264 16.3137L14.0709 13.8693C14.3709 13.5693 14.8153 13.4693 15.2042 13.6026C16.4487 14.0137 17.7931 14.2359 19.1709 14.2359C19.782 14.2359 20.282 14.7359 20.282 15.347V19.2248C20.282 19.8359 19.782 20.3359 19.1709 20.3359C8.73754 20.3359 0.281982 11.8804 0.281982 1.44705C0.281982 0.835938 0.781982 0.335938 1.39309 0.335938H5.28198C5.89309 0.335938 6.39309 0.835938 6.39309 1.44705C6.39309 2.83594 6.61532 4.16927 7.02643 5.41372C7.14865 5.8026 7.05976 6.23594 6.74865 6.54705L4.3042 8.99149Z" fill="white"/>
</svg>
