<svg width="21" height="17" viewBox="0 0 21 17" fill="none" xmlns="http://www.w3.org/2000/svg">
<path d="M2.28198 16.3359C1.73198 16.3359 1.26098 16.1399 0.868984 15.7479C0.476984 15.3559 0.281317 14.8853 0.281984 14.3359V2.33594C0.281984 1.78594 0.477984 1.31494 0.869984 0.922939C1.26198 0.530939 1.73265 0.335273 2.28198 0.335939H18.282C18.832 0.335939 19.303 0.531939 19.695 0.923939C20.087 1.31594 20.2826 1.78661 20.282 2.33594V14.3359C20.282 14.8859 20.086 15.3569 19.694 15.7489C19.302 16.1409 18.8313 16.3366 18.282 16.3359H2.28198ZM10.282 9.33594L2.28198 4.33594V14.3359H18.282V4.33594L10.282 9.33594ZM10.282 7.33594L18.282 2.33594H2.28198L10.282 7.33594ZM2.28198 4.33594V2.33594V14.3359V4.33594Z" fill="white"/>
</svg>
