<svg width="60" height="60" viewBox="0 0 60 60" fill="none" xmlns="http://www.w3.org/2000/svg">
<circle cx="30" cy="30" r="30" fill="#023069"/>
<path d="M17.25 43C16.3563 43 15.5909 42.6815 14.9539 42.0445C14.3169 41.4075 13.9989 40.6427 14 39.75V20.25C14 19.3563 14.3185 18.5909 14.9555 17.9539C15.5925 17.3169 16.3573 16.9989 17.25 17H43.25C44.1437 17 44.9091 17.3185 45.5461 17.9555C46.1831 18.5925 46.5011 19.3573 46.5 20.25V39.75C46.5 40.6437 46.1815 41.4091 45.5445 42.0461C44.9075 42.6831 44.1427 43.0011 43.25 43H17.25ZM30.25 31.625L17.25 23.5V39.75H43.25V23.5L30.25 31.625ZM30.25 28.375L43.25 20.25H17.25L30.25 28.375ZM17.25 23.5V20.25V39.75V23.5Z" fill="white"/>
</svg>
