<svg width="60" height="60" viewBox="0 0 60 60" fill="none" xmlns="http://www.w3.org/2000/svg">
<circle cx="30" cy="30" r="30" fill="#023069"/>
<path d="M30 30.3057C30.8938 30.3057 31.6591 29.9861 32.2961 29.347C32.9331 28.7078 33.2511 27.9403 33.25 27.0446C33.25 26.1478 32.9315 25.3798 32.2945 24.7406C31.6575 24.1014 30.8927 23.7824 30 23.7834C29.1062 23.7834 28.3409 24.103 27.7039 24.7422C27.0669 25.3814 26.7489 26.1489 26.75 27.0446C26.75 27.9414 27.0685 28.7094 27.7055 29.3486C28.3425 29.9878 29.1073 30.3068 30 30.3057ZM30 46C29.7833 46 29.5667 45.9592 29.35 45.8777C29.1333 45.7962 28.9438 45.6875 28.7812 45.5516C24.8271 42.0459 21.875 38.7912 19.925 35.7877C17.975 32.7842 17 29.9785 17 27.3707C17 23.2943 18.307 20.0467 20.9211 17.628C23.5352 15.2093 26.5615 14 30 14C33.4396 14 36.4664 15.2093 39.0805 17.628C41.6946 20.0467 43.0011 23.2943 43 27.3707C43 29.9796 42.025 32.7858 40.075 35.7894C38.125 38.7929 35.1729 42.0469 31.2188 45.5516C31.0562 45.6875 30.8667 45.7962 30.65 45.8777C30.4333 45.9592 30.2167 46 30 46Z" fill="white"/>
</svg>
