<svg width="60" height="60" viewBox="0 0 60 60" fill="none" xmlns="http://www.w3.org/2000/svg">
<circle cx="30" cy="30" r="30" fill="#023069"/>
<path d="M21.1339 28.1997C23.5739 32.995 27.505 36.9092 32.3003 39.3661L36.0281 35.6383C36.4856 35.1808 37.1633 35.0283 37.7564 35.2317C39.6542 35.8586 41.7044 36.1975 43.8056 36.1975C44.7375 36.1975 45.5 36.96 45.5 37.8919V43.8056C45.5 44.7375 44.7375 45.5 43.8056 45.5C27.8947 45.5 15 32.6053 15 16.6944C15 15.7625 15.7625 15 16.6944 15H22.625C23.5569 15 24.3194 15.7625 24.3194 16.6944C24.3194 18.8125 24.6583 20.8458 25.2853 22.7436C25.4717 23.3367 25.3361 23.9975 24.8617 24.4719L21.1339 28.1997Z" fill="white"/>
</svg>
