<svg width="156" height="76" viewBox="0 0 156 76" fill="none" xmlns="http://www.w3.org/2000/svg">
<path d="M37.9028 0.827687C38.9039 1.99439 38.7147 13.9846 37.9028 13.9846C18.0767 13.9846 12.4166 32.3918 13.0709 40.4089C13.6779 47.9137 21.9394 66.2104 37.0987 64.3973C37.6978 64.3263 37.6584 73.3919 35.8374 74.2591C29.2155 77.3966 4.7463 66.171 0.702249 43.8775C-5.75404 8.30091 34.3396 -3.34249 37.9028 0.827687Z" fill="#0C3D74"/>
<path d="M37.8003 20.165L37.9028 55.8047C37.9028 55.8047 24.2729 56.2383 20.1736 43.8066C16.0823 31.367 24.6118 20.6223 37.8003 20.165Z" fill="#043270"/>
<path d="M47.9695 13.9846C51.6876 13.9846 54.7017 10.9706 54.7017 7.25247C54.7017 3.53438 51.6876 0.520264 47.9695 0.520264C44.2514 0.520264 41.2373 3.53438 41.2373 7.25247C41.2373 10.9706 44.2514 13.9846 47.9695 13.9846Z" fill="#043270"/>
<path d="M47.9695 44.9102C51.6876 44.9102 54.7017 41.8961 54.7017 38.178C54.7017 34.4599 51.6876 31.4458 47.9695 31.4458C44.2514 31.4458 41.2373 34.4599 41.2373 38.178C41.2373 41.8961 44.2514 44.9102 47.9695 44.9102Z" fill="#043270"/>
<path d="M47.9695 75.5835C51.6876 75.5835 54.7017 72.5694 54.7017 68.8513C54.7017 65.1332 51.6876 62.1191 47.9695 62.1191C44.2514 62.1191 41.2373 65.1332 41.2373 68.8513C41.2373 72.5694 44.2514 75.5835 47.9695 75.5835Z" fill="#043270"/>
<path d="M65.462 0C67.086 0 68.2842 0.520288 69.0567 1.55298C70.1446 2.49107 70.6807 3.35033 70.6807 4.13865C70.996 4.13865 71.1615 5.75469 71.201 8.99466V9.9564C71.201 10.9891 70.8304 11.5094 70.0894 11.5094H68.836C68.0477 11.5094 67.6535 10.9181 67.6535 9.73568V6.80315C67.6535 5.07674 66.8731 4.21748 65.3123 4.21748H65.2413C64.1534 4.21748 63.4676 4.63529 63.1759 5.4709C63.0261 5.9833 62.9552 6.29863 62.9552 6.43264V29.8613C62.9552 30.9098 63.3966 31.6271 64.2874 32.0055H66.3528C67.1727 31.6587 67.5826 30.9965 67.5826 30.0111C67.5826 26.6292 67.756 24.9344 68.1029 24.9344C68.5443 24.7846 68.9148 24.7136 69.2144 24.7136H69.6558C70.6885 24.7136 71.2088 25.1472 71.2088 26.0222V27.5042C71.2088 30.5787 70.8856 32.5495 70.2471 33.4166C70.2471 34.5518 69.0252 35.5056 66.5735 36.2703C65.9823 36.3176 65.5409 36.3413 65.2413 36.3413C63.8302 36.3413 62.498 35.884 61.2524 34.9617C60.74 34.5203 60.2513 33.5112 59.7704 31.9346C59.526 31.0832 59.3999 30.1215 59.3999 29.0494V8.03292C59.3999 4.63529 60.1409 2.45166 61.6151 1.48203C62.2536 0.488758 63.5386 0 65.462 0Z" fill="#012765"/>
<path d="M77.9487 0.520264H78.6897C79.5568 0.520264 79.9983 0.961721 79.9983 1.85252V30.082C79.9983 31.0201 80.3924 31.4852 81.1807 31.4852H85.5401C86.5728 31.4852 87.0931 32.0055 87.0931 33.0382C87.0931 34.7961 86.896 35.6712 86.5019 35.6712C86.1077 35.7658 85.6899 35.8209 85.2484 35.8209H77.8856C77.0027 35.8209 76.5533 35.5056 76.5533 34.8828V1.70273C76.5454 0.91442 77.0106 0.520264 77.9487 0.520264Z" fill="#012765"/>
<path d="M93.2267 0.520264C94.0465 0.520264 94.4565 0.890774 94.4565 1.63179V34.741C94.4565 35.4662 93.9441 35.8288 92.9271 35.8288H92.4068C91.4214 35.8288 90.9248 35.3716 90.9248 34.4493V1.93135C90.9248 0.993259 91.2244 0.528155 91.8077 0.528155H93.2267V0.520264Z" fill="#012765"/>
<path d="M102.583 0.520264C103.616 0.567562 104.136 1.08785 104.136 2.07324C104.333 2.64871 104.657 4.29629 105.098 7.02385C105.327 7.78063 105.737 9.81448 106.328 13.1333L107.81 20.2754C108.054 20.575 108.204 20.7169 108.251 20.7169H108.322C108.764 20.7169 108.984 20.3936 108.984 19.7551C108.984 19.558 108.961 19.361 108.914 19.1639C108.961 17.8159 108.984 16.7201 108.984 15.8608V14.8281C108.984 14.1187 108.961 13.6063 108.914 13.2752C108.961 12.8495 108.984 12.3055 108.984 11.6512V9.58587C108.984 8.89215 108.961 8.37975 108.914 8.03289C108.961 7.62297 108.984 7.08692 108.984 6.43261V4.36724C108.984 3.87848 108.961 3.25572 108.914 2.52259C108.914 1.19034 109.331 0.528155 110.167 0.528155H110.829C111.665 0.528155 112.083 0.898641 112.083 1.63966V34.7488C112.083 35.4741 111.491 35.8367 110.309 35.8367H109.938C108.85 35.8367 108.314 35.3558 108.314 34.3862C108.117 33.7477 107.431 30.3027 106.249 24.0672C105.705 21.718 105.342 19.8182 105.161 18.3756C104.98 18.1312 104.806 17.5242 104.641 16.5546L104.341 16.3338H104.121C103.821 16.4836 103.679 16.7438 103.679 17.1221V34.3153C103.679 35.3322 103.135 35.8446 102.055 35.8446H101.834C100.849 35.8446 100.352 35.6081 100.352 35.1272C100.274 35.1272 100.218 34.8828 100.203 34.3862V2.089C100.203 1.05631 100.573 0.536021 101.314 0.536021H102.583V0.520264Z" fill="#012765"/>
<path d="M120.368 0.520264C121.188 0.520264 121.598 0.890774 121.598 1.63179V34.741C121.598 35.4662 121.085 35.8288 120.068 35.8288H119.548C118.563 35.8288 118.066 35.3716 118.066 34.4493V1.93135C118.066 0.993259 118.365 0.528155 118.949 0.528155H120.368V0.520264Z" fill="#012765"/>
<path d="M133.178 0C134.802 0 136 0.520288 136.773 1.55298C137.86 2.49107 138.396 3.35033 138.396 4.13865C138.712 4.13865 138.877 5.75469 138.917 8.99466V9.9564C138.917 10.9891 138.546 11.5094 137.805 11.5094H136.552C135.764 11.5094 135.369 10.9181 135.369 9.73568V6.80315C135.369 5.07674 134.589 4.21748 133.028 4.21748H132.957C131.869 4.21748 131.183 4.63529 130.892 5.4709C130.742 5.9833 130.671 6.29863 130.671 6.43264V29.8613C130.671 30.9098 131.112 31.6271 132.003 32.0055H134.069C134.889 31.6587 135.298 30.9965 135.298 30.0111C135.298 26.6292 135.472 24.9344 135.819 24.9344C136.26 24.7846 136.631 24.7136 136.93 24.7136H137.372C138.404 24.7136 138.925 25.1472 138.925 26.0222V27.5042C138.925 30.5787 138.601 32.5495 137.963 33.4166C137.963 34.5518 136.741 35.5056 134.289 36.2703C133.698 36.3176 133.257 36.3413 132.957 36.3413C131.546 36.3413 130.214 35.884 128.968 34.9617C128.456 34.5203 127.967 33.5112 127.486 31.9346C127.242 31.0832 127.116 30.1215 127.116 29.0494V8.03292C127.116 4.63529 127.857 2.45166 129.331 1.48203C129.977 0.488758 131.262 0 133.178 0Z" fill="#012765"/>
<path d="M147.589 0.520264H150.253C151.435 0.520264 152.027 1.43471 152.027 3.25571L154.368 21.0874C154.857 24.8634 155.227 28.0324 155.48 30.5944L156 34.8828V35.0326C156 35.5608 155.511 35.8209 154.518 35.8209H154.218C153.052 35.8209 152.468 35.4347 152.468 34.6621C152.09 30.5708 151.743 28.529 151.435 28.529C151.136 28.332 150.868 28.2295 150.624 28.2295H148.921C148.605 28.2295 148.29 28.2058 147.959 28.1585C146.824 28.1585 146.256 28.6 146.256 29.4908C145.815 32.9594 145.594 34.8277 145.594 35.1036C145.444 35.5766 144.932 35.8209 144.041 35.8209H143.474C142.535 35.8209 142.07 35.5372 142.07 34.9617C142.709 29.9165 143.103 26.4321 143.253 24.4929C143.781 20.8666 144.088 18.5017 144.191 17.3981L145.074 10.7683C145.618 6.82677 145.886 4.79292 145.886 4.65891C146.036 4.28052 146.185 3.1217 146.327 1.18244C146.548 0.740989 146.966 0.520264 147.589 0.520264ZM146.997 22.7113V22.8611C146.997 23.5548 147.439 23.8938 148.33 23.8938H149.662C150.6 23.8938 151.065 23.4286 151.065 22.4906C150.915 20.3858 150.742 18.7618 150.545 17.6109L149.883 11.6512C149.883 9.83024 149.583 8.9158 149 8.9158C148.59 8.9158 148.29 10.1219 148.117 12.5342L146.997 22.7113Z" fill="#012765"/>
<path d="M61.0476 39.6837H68.9307C69.8136 39.6837 70.263 40.1488 70.263 41.0869V42.4901C70.263 43.5228 69.8215 44.0431 68.9307 44.0431H64.2245C63.5308 44.1929 63.1918 44.5318 63.1918 45.0758V54.2912C63.1918 54.8036 63.515 55.0952 64.1536 55.1741H68.7888C69.8215 55.1741 70.3418 55.5603 70.3418 56.3329V58.4771C70.3418 59.1157 70.0186 59.4389 69.3801 59.4389H64.8C63.8461 59.4389 63.31 59.8567 63.1997 60.6923V69.7579C63.1997 70.2467 63.5702 70.5462 64.3112 70.6408H68.6469C69.7348 70.6408 70.2708 71.1611 70.2708 72.1938V73.1555C70.2708 74.3222 69.924 74.9056 69.2382 74.9056C68.9938 74.9529 68.6706 74.9765 68.2764 74.9765H61.1343C60.1962 74.9765 59.7311 74.6612 59.7311 74.0384C59.6838 73.9911 59.6602 73.7941 59.6602 73.4472V41.7412C59.6602 40.409 59.9834 39.7468 60.6219 39.7468C60.6061 39.7074 60.7559 39.6837 61.0476 39.6837Z" fill="#012765"/>
<path d="M80.9285 39.1949H81.1492C83.4984 39.1949 85.2405 40.4484 86.3678 42.9631C86.7147 43.7987 86.8881 44.9812 86.8881 46.5105V49.443C86.8881 50.2786 86.4466 50.6964 85.5558 50.6964H84.8937C83.924 50.6964 83.4432 50.3259 83.4432 49.5849V45.9902C83.4432 44.6107 82.9229 43.775 81.8902 43.4755C81.2832 43.4282 80.96 43.4045 80.9285 43.4045C79.3991 43.4045 78.6345 44.3663 78.6345 46.2898V49.514C78.6345 50.9566 79.2493 52.2652 80.4791 53.4319C80.4791 53.5817 81.7483 54.8272 84.2945 57.1764C84.7202 57.7518 85.138 58.4929 85.548 59.3915C85.8633 59.3915 86.2811 60.4479 86.8014 62.5685C86.8487 63.1597 86.8723 63.8219 86.8723 64.5629V68.0157C86.8723 71.366 85.9894 73.6285 84.2078 74.8109C82.7652 75.3391 81.6852 75.5993 80.9836 75.5993C79.9509 75.5993 78.6896 75.1893 77.2155 74.3695C76.3956 73.6127 75.7571 72.2568 75.292 70.3018C75.1422 69.0247 75.0713 67.8423 75.0713 66.7544V65.5956C75.0713 64.4604 75.56 63.8928 76.5533 63.8928H77.1445C78.1299 63.8928 78.6266 64.2633 78.6266 65.0043V68.1576C78.6266 70.223 79.2887 71.2635 80.621 71.2635H81.1413C82.6233 71.2635 83.3564 70.4989 83.3564 68.9696C83.4037 68.9696 83.4274 68.7488 83.4274 68.3074V64.0426C83.4274 63.1203 82.9859 61.9378 82.0951 60.4952C78.3034 56.8847 76.4035 54.843 76.4035 54.3857C75.5206 52.5647 75.0713 50.6413 75.0713 48.6232V48.5522C75.0713 45.6433 75.2684 43.8066 75.6625 43.034C76.104 41.7175 77.113 40.5587 78.6896 39.5576C79.4149 39.3132 80.1559 39.1949 80.9285 39.1949Z" fill="#012765"/>
<path d="M93.4946 39.7074H97.4834C99.4858 39.7074 100.857 40.2513 101.598 41.3313C102.686 42.3009 103.222 43.3809 103.222 44.5792C103.467 45.3044 103.593 45.872 103.593 46.2819V52.6121C103.167 55.1268 102.797 56.3802 102.481 56.3802C100.999 58.3352 99.5804 59.3128 98.2166 59.3128C96.5926 59.3128 95.7807 59.6833 95.7807 60.4243V73.5576C95.7807 74.5272 95.3392 75.0081 94.4484 75.0081H93.4157C92.5328 75.0081 92.0835 74.6218 92.0835 73.8493V41.1815C92.0914 40.204 92.5565 39.7074 93.4946 39.7074ZM95.7886 44.8787V54.2439C96.0487 54.8351 96.4665 55.1268 97.042 55.1268H98.0037C99.265 55.1268 99.9036 54.4331 99.9036 53.0614V45.8405C99.5883 44.6107 98.863 43.9958 97.712 43.9958H96.8291C96.2773 43.9958 95.9305 44.2875 95.7886 44.8787Z" fill="#012765"/>
<path d="M113.746 39.1949C114.834 39.1949 116.135 39.6364 117.664 40.5272C118.255 41.0711 118.87 42.4034 119.509 44.5161C119.603 45.2255 119.659 46.1794 119.659 47.4013V68.3152C119.659 69.6475 119.359 71.1216 118.776 72.7456C117.443 74.6533 115.867 75.5993 114.046 75.5993H113.825C113.778 75.5993 113.754 75.6229 113.754 75.6702C113.659 75.6229 113.581 75.5993 113.533 75.5993C111.2 75.5993 109.458 74.2985 108.315 71.705C107.968 70.2072 107.794 68.536 107.794 66.6755V47.9531C107.794 44.2401 108.433 41.8831 109.718 40.8819C110.64 39.7546 111.988 39.1949 113.746 39.1949ZM111.405 45.6985V68.536C111.405 70.3097 111.791 71.2005 112.564 71.2005C112.564 71.2951 113.005 71.3502 113.896 71.3502C114.929 71.3502 115.622 70.759 115.961 69.5765V45.265C115.961 44.0825 115.173 43.4913 113.596 43.4913C112.13 43.6726 111.405 44.4136 111.405 45.6985Z" fill="#012765"/>
<path d="M126.478 39.7074H130.096C132.823 39.7074 134.589 40.4011 135.393 41.7728C136.182 43.4834 136.576 44.7368 136.576 45.5409C136.67 45.5409 136.726 46.1952 136.726 47.5117V50.9093C136.726 53.6369 136.261 55.4343 135.322 56.3014C135.322 56.4197 134.684 57.0267 133.399 58.1224L133.249 58.6427V58.7136C133.249 59.2576 134.164 62.5448 135.985 68.5912L137.687 74.2828C137.687 74.7085 137.27 74.945 136.434 75.0002H135.843C134.51 75.0002 133.848 74.4878 133.848 73.4709C132.666 68.9381 132.075 66.5968 132.075 66.447C131.586 64.2949 130.995 62.1113 130.325 59.8961C130.08 59.6517 129.93 59.5256 129.883 59.5256H129.292C129.047 59.6044 128.921 59.9277 128.921 60.4874V72.5801C128.921 74.1409 128.622 74.9214 128.038 74.9214C127.707 74.9687 127.392 74.9923 127.077 74.9923H126.556C125.673 74.9923 125.224 74.6533 125.224 73.9833V40.7401C125.224 40.0543 125.642 39.7074 126.478 39.7074ZM128.921 45.399V53.8734C128.921 54.709 129.221 55.1268 129.804 55.1268H131.113C131.98 55.1268 132.626 54.5356 133.036 53.3531V45.9114C133.036 44.6344 132.248 43.9879 130.671 43.9879H130.104C129.315 43.9958 128.921 44.4609 128.921 45.399Z" fill="#012765"/>
<path d="M145.106 39.6837H147.77C148.953 39.6837 149.544 40.5982 149.544 42.4192L151.885 60.2508C152.374 64.0269 152.744 67.1959 152.997 69.7579L153.517 74.0463V74.1961C153.517 74.7243 153.028 74.9844 152.035 74.9844H151.735C150.569 74.9844 149.985 74.5981 149.985 73.8256C149.607 69.7342 149.26 67.6925 148.953 67.6925C148.653 67.4954 148.385 67.393 148.141 67.393H146.438C146.123 67.393 145.807 67.3693 145.476 67.322C144.341 67.322 143.773 67.7634 143.773 68.6542C143.332 72.1228 143.111 73.9911 143.111 74.267C142.961 74.74 142.449 74.9844 141.558 74.9844H140.991C140.053 74.9844 139.587 74.7006 139.587 74.1251C140.226 69.0799 140.62 65.5956 140.77 63.6563C141.298 60.0301 141.605 57.6651 141.708 56.5615L142.591 49.9318C143.135 45.9902 143.403 43.9564 143.403 43.8224C143.553 43.444 143.702 42.2851 143.844 40.3459C144.057 39.9044 144.483 39.6837 145.106 39.6837ZM144.514 61.8826V62.0324C144.514 62.7261 144.956 63.0651 145.847 63.0651H147.179C148.117 63.0651 148.582 62.6 148.582 61.6619C148.432 59.5571 148.259 57.9332 148.062 56.7822L147.4 50.8226C147.4 49.0016 147.1 48.0871 146.517 48.0871C146.107 48.0871 145.807 49.2933 145.634 51.7055L144.514 61.8826Z" fill="#012765"/>
<path d="M37.9026 63.9008V74.9293C37.9026 74.9293 20.4099 76.9789 8.34085 60.6214C-5.02107 42.5138 3.31928 38.9506 7.56829 38.8009C11.7621 38.6511 12.582 40.3065 13.2678 41.7491C13.9694 43.2154 14.2926 50.2866 21.0642 56.9715C31.3202 67.1013 37.9026 63.9008 37.9026 63.9008Z" fill="#67C62E"/>
</svg>
